<svg width="42" height="42" viewBox="0 0 42 42" fill="none" xmlns="http://www.w3.org/2000/svg">
<path d="M26.2501 22.7499C25.2824 22.7499 24.5002 23.534 24.5002 24.4998V31.5C24.5002 32.4642 23.7161 33.2499 22.75 33.2499H17.5V6.99989C17.5 5.50539 16.5479 4.17014 15.1166 3.67314L14.5984 3.49979H22.75C23.7161 3.49979 24.5002 4.28549 24.5002 5.25V10.5C24.5002 11.4658 25.2824 12.2499 26.2501 12.2499C27.2178 12.2499 28 11.4658 28 10.5V5.25C28 2.35551 25.6445 0 22.75 0H3.93751C3.87086 0 3.81511 0.0298005 3.75038 0.0384521C3.66611 0.0314026 3.58568 0 3.50012 0C1.56981 0 0 1.56949 0 3.49979V34.9998C0 36.4943 0.952015 37.8295 2.3834 38.3265L12.9152 41.8372C13.2721 41.9474 13.6272 42 14.0002 42C15.9305 42 17.5 40.4302 17.5 38.4999V36.75H22.75C25.6445 36.75 28 34.3945 28 31.5V24.4998C28 23.534 27.2178 22.7499 26.2501 22.7499Z" fill="white"/>
<path d="M41.4936 16.2982L34.5845 9.49854C34.0908 9.01234 33.3479 8.86605 32.7021 9.12938C32.0578 9.39302 31.6362 10.0134 31.6362 10.7003V15.8002H24.7274C23.7739 15.8002 23 16.5615 23 17.5C23 18.4385 23.7739 19.1998 24.7274 19.1998H31.6362V24.2996C31.6362 24.9866 32.0578 25.607 32.7021 25.8706C33.3479 26.1339 34.0908 25.9876 34.5845 25.5018L41.4936 18.7018C42.1688 18.0372 42.1688 16.9627 41.4936 16.2982Z" fill="white"/>
</svg>
